<svg width="28" height="28" viewBox="0 0 28 28" fill="none" xmlns="http://www.w3.org/2000/svg">
<path d="M14.0001 4.66666C14.6444 4.66666 15.1667 5.18899 15.1667 5.83332V12.8333H22.1667C22.8111 12.8333 23.3334 13.3557 23.3334 14C23.3334 14.6443 22.8111 15.1667 22.1667 15.1667H15.1667V22.1667C15.1667 22.811 14.6444 23.3333 14.0001 23.3333C13.3557 23.3333 12.8334 22.811 12.8334 22.1667V15.1667H5.83341C5.18908 15.1667 4.66675 14.6443 4.66675 14C4.66675 13.3557 5.18908 12.8333 5.83341 12.8333H12.8334V5.83332C12.8334 5.18899 13.3557 4.66666 14.0001 4.66666Z" fill="#E7E7E7"/>
</svg>
