<svg width="170" height="47" viewBox="0 0 170 47" fill="none" xmlns="http://www.w3.org/2000/svg">
<path d="M56.324 34V14.4H64.808C66.5627 14.4 68.0747 14.6893 69.344 15.268C70.6133 15.828 71.5933 16.64 72.284 17.704C72.9747 18.768 73.32 20.0373 73.32 21.512C73.32 22.968 72.9747 24.228 72.284 25.292C71.5933 26.3373 70.6133 27.14 69.344 27.7C68.0747 28.26 66.5627 28.54 64.808 28.54H58.844L60.86 26.552V34H56.324ZM68.784 34L63.884 26.888H68.728L73.684 34H68.784ZM60.86 27.056L58.844 24.928H64.556C65.956 24.928 67.0013 24.6293 67.692 24.032C68.3827 23.416 68.728 22.576 68.728 21.512C68.728 20.4293 68.3827 19.5893 67.692 18.992C67.0013 18.3947 65.956 18.096 64.556 18.096H58.844L60.86 15.94V27.056ZM84.0818 34.224C82.3645 34.224 80.8525 33.888 79.5458 33.216C78.2578 32.544 77.2592 31.6293 76.5498 30.472C75.8405 29.296 75.4858 27.9613 75.4858 26.468C75.4858 24.956 75.8312 23.6213 76.5218 22.464C77.2312 21.288 78.1925 20.3733 79.4058 19.72C80.6192 19.048 81.9912 18.712 83.5218 18.712C84.9965 18.712 86.3218 19.0293 87.4978 19.664C88.6925 20.28 89.6352 21.176 90.3258 22.352C91.0165 23.5093 91.3618 24.9 91.3618 26.524C91.3618 26.692 91.3525 26.888 91.3338 27.112C91.3152 27.3173 91.2965 27.5133 91.2778 27.7H79.0418V25.152H88.9818L87.3018 25.908C87.3018 25.124 87.1432 24.4427 86.8258 23.864C86.5085 23.2853 86.0698 22.8373 85.5098 22.52C84.9498 22.184 84.2965 22.016 83.5498 22.016C82.8032 22.016 82.1405 22.184 81.5618 22.52C81.0018 22.8373 80.5632 23.2947 80.2458 23.892C79.9285 24.4707 79.7698 25.1613 79.7698 25.964V26.636C79.7698 27.4573 79.9472 28.1853 80.3018 28.82C80.6752 29.436 81.1885 29.912 81.8418 30.248C82.5138 30.5653 83.2978 30.724 84.1938 30.724C84.9965 30.724 85.6965 30.6027 86.2938 30.36C86.9098 30.1173 87.4698 29.7533 87.9738 29.268L90.2978 31.788C89.6072 32.572 88.7392 33.1787 87.6938 33.608C86.6485 34.0187 85.4445 34.224 84.0818 34.224ZM113.562 18.712C114.757 18.712 115.811 18.9547 116.726 19.44C117.659 19.9067 118.387 20.6347 118.91 21.624C119.451 22.5947 119.722 23.8453 119.722 25.376V34H115.354V26.048C115.354 24.8347 115.102 23.9387 114.598 23.36C114.094 22.7813 113.385 22.492 112.47 22.492C111.835 22.492 111.266 22.6413 110.762 22.94C110.258 23.22 109.866 23.6493 109.586 24.228C109.306 24.8067 109.166 25.544 109.166 26.44V34H104.798V26.048C104.798 24.8347 104.546 23.9387 104.042 23.36C103.557 22.7813 102.857 22.492 101.942 22.492C101.307 22.492 100.738 22.6413 100.234 22.94C99.7299 23.22 99.3379 23.6493 99.0579 24.228C98.7779 24.8067 98.6379 25.544 98.6379 26.44V34H94.2699V18.936H98.4419V23.052L97.6579 21.848C98.1806 20.8213 98.9179 20.0467 99.8699 19.524C100.841 18.9827 101.942 18.712 103.174 18.712C104.555 18.712 105.759 19.0667 106.786 19.776C107.831 20.4667 108.522 21.5307 108.858 22.968L107.318 22.548C107.822 21.372 108.625 20.4387 109.726 19.748C110.846 19.0573 112.125 18.712 113.562 18.712ZM132.877 34V31.06L132.597 30.416V25.152C132.597 24.2187 132.308 23.4907 131.729 22.968C131.169 22.4453 130.301 22.184 129.125 22.184C128.322 22.184 127.529 22.3147 126.745 22.576C125.98 22.8187 125.326 23.1547 124.785 23.584L123.217 20.532C124.038 19.9533 125.028 19.5053 126.185 19.188C127.342 18.8707 128.518 18.712 129.713 18.712C132.009 18.712 133.792 19.2533 135.061 20.336C136.33 21.4187 136.965 23.108 136.965 25.404V34H132.877ZM128.285 34.224C127.109 34.224 126.101 34.028 125.261 33.636C124.421 33.2253 123.777 32.6747 123.329 31.984C122.881 31.2933 122.657 30.5187 122.657 29.66C122.657 28.764 122.872 27.98 123.301 27.308C123.749 26.636 124.449 26.1133 125.401 25.74C126.353 25.348 127.594 25.152 129.125 25.152H133.129V27.7H129.601C128.574 27.7 127.865 27.868 127.473 28.204C127.1 28.54 126.913 28.96 126.913 29.464C126.913 30.024 127.128 30.472 127.557 30.808C128.005 31.1253 128.612 31.284 129.377 31.284C130.105 31.284 130.758 31.116 131.337 30.78C131.916 30.4253 132.336 29.912 132.597 29.24L133.269 31.256C132.952 32.2267 132.373 32.964 131.533 33.468C130.693 33.972 129.61 34.224 128.285 34.224ZM140.918 34V18.936H145.09V23.192L144.502 21.96C144.95 20.896 145.669 20.0933 146.658 19.552C147.648 18.992 148.852 18.712 150.27 18.712V22.744C150.084 22.7253 149.916 22.716 149.766 22.716C149.617 22.6973 149.458 22.688 149.29 22.688C148.096 22.688 147.125 23.0333 146.378 23.724C145.65 24.396 145.286 25.4507 145.286 26.888V34H140.918ZM156.507 30.92L156.619 25.6L163.647 18.936H168.855L162.107 25.796L159.839 27.644L156.507 30.92ZM152.895 34V13.224H157.263V34H152.895ZM164.123 34L159.027 27.672L161.771 24.284L169.415 34H164.123Z" fill="white"/>
<path d="M10.5178 13.0659C10.5953 13.9057 10.8423 14.7211 11.244 15.4627L11.3211 15.6009L12.8492 18.25L19.2274 29.2872L31.2744 29.2764L32.8045 31.925C34.0372 34.0529 33.5898 36.7559 31.7372 38.3731C30.8009 39.2028 29.5673 39.6016 28.3172 39.63L28.1879 39.6316L15.5212 39.6329C14.8347 39.6401 14.1505 39.453 13.5563 39.1099C12.9964 38.7881 12.526 38.3314 12.1878 37.7813L12.122 37.6703L5.60738 26.3868C4.7611 24.9332 4.74468 23.1456 5.55036 21.6725L5.60523 21.5747L10.5178 13.0659ZM11.7682 11.4532C12.2452 9.08332 14.2991 7.36596 16.7057 7.30647L16.8187 7.30491L29.6525 7.30367C30.338 7.29582 31.0232 7.48355 31.6176 7.82671C32.1746 8.14829 32.6526 8.60692 32.9869 9.15542L33.0518 9.26622L39.5664 20.5497C40.4126 22.0034 40.4292 23.791 39.6235 25.2641L39.5685 25.3619L34.656 33.8707C34.5744 33.0412 34.3348 32.2304 33.9348 31.4841L33.8527 31.3357L32.3233 28.6859L25.9465 17.6494L13.888 17.6536L12.4529 15.1562C11.8074 14.0335 11.5099 12.7199 11.7682 11.4532Z" fill="url(#paint0_linear_162_112)"/>
<defs>
<linearGradient id="paint0_linear_162_112" x1="9.03068" y1="15.6416" x2="41" y2="53" gradientUnits="userSpaceOnUse">
<stop stop-color="#5454D4"/>
<stop offset="1" stop-color="#913BAA"/>
</linearGradient>
</defs>
</svg>
