<svg width="37" height="33" viewBox="0 0 37 33" fill="none" xmlns="http://www.w3.org/2000/svg">
<path d="M0 0H37V33H0V0Z" fill="#D9D9D9"/>
<path d="M6.51778 6.06587C6.59526 6.90569 6.84231 7.72107 7.24398 8.46267L7.32109 8.60087L15.2274 22.2872L27.2744 22.2764L28.8045 24.925C30.0372 27.0529 29.5898 29.7559 27.7372 31.3731C26.8009 32.2028 25.5673 32.6016 24.3172 32.63L24.1879 32.6316L11.5212 32.6329C10.8347 32.6401 10.1505 32.453 9.55625 32.1099C8.99643 31.7881 8.52599 31.3314 8.18776 30.7813L8.12197 30.6703L1.60738 19.3868C0.761102 17.9332 0.744681 16.1456 1.55036 14.6725L1.60523 14.5747L6.51778 6.06587ZM7.76823 4.45315C8.24521 2.08332 10.2991 0.365958 12.7057 0.306473L12.8187 0.304911L25.6525 0.30367C26.338 0.295818 27.0232 0.483547 27.6176 0.826713C28.1746 1.14829 28.6526 1.60692 28.9869 2.15542L29.0518 2.26622L35.5664 13.5497C36.4126 15.0034 36.4292 16.791 35.6235 18.2641L35.5685 18.3619L30.656 26.8707C30.5744 26.0412 30.3348 25.2304 29.9348 24.4841L29.8527 24.3357L21.9465 10.6494L9.88796 10.6536L8.45295 8.15618C7.80743 7.03351 7.50988 5.71988 7.76823 4.45315Z" fill="url(#paint0_linear_162_116)"/>
<defs>
<linearGradient id="paint0_linear_162_116" x1="5.03068" y1="8.64161" x2="37" y2="46" gradientUnits="userSpaceOnUse">
<stop stop-color="#5454D4"/>
<stop offset="1" stop-color="#913BAA"/>
</linearGradient>
</defs>
</svg>
